<svg xmlns="http://www.w3.org/2000/svg" width="107" height="42" viewBox="0 0 107 42" fill="none"><g opacity="0.8"><path d="M7.05271 26.352H23.7567V31.68H0.428711V0H7.05271V26.352Z" fill="white"></path><path d="M39.107 7.2C41.539 7.2 43.667 7.696 45.491 8.688C47.347 9.68 48.787 11.104 49.811 12.96C50.867 14.816 51.395 17.056 51.395 19.68C51.395 22.272 50.867 24.512 49.811 26.4C48.787 28.256 47.347 29.68 45.491 30.672C43.667 31.664 41.539 32.16 39.107 32.16C36.707 32.16 34.579 31.664 32.723 30.672C30.867 29.68 29.411 28.256 28.355 26.4C27.331 24.512 26.819 22.272 26.819 19.68C26.819 17.056 27.331 14.816 28.355 12.96C29.411 11.104 30.867 9.68 32.723 8.688C34.579 7.696 36.707 7.2 39.107 7.2ZM39.107 12.096C37.891 12.096 36.851 12.384 35.987 12.96C35.155 13.504 34.515 14.336 34.067 15.456C33.619 16.576 33.395 17.984 33.395 19.68C33.395 21.376 33.619 22.784 34.067 23.904C34.515 25.024 35.155 25.872 35.987 26.448C36.851 26.992 37.891 27.264 39.107 27.264C40.291 27.264 41.299 26.992 42.131 26.448C42.995 25.872 43.651 25.024 44.099 23.904C44.547 22.784 44.771 21.376 44.771 19.68C44.771 17.984 44.547 16.576 44.099 15.456C43.651 14.336 42.995 13.504 42.131 12.96C41.299 12.384 40.291 12.096 39.107 12.096Z" fill="white"></path><path d="M78.8378 1.968L79.6058 6.672C79.4778 6.672 79.3338 6.672 79.1738 6.672C79.0458 6.64 78.9018 6.624 78.7418 6.624C77.2698 6.624 76.1658 6.96 75.4298 7.632C74.6938 8.272 74.3258 9.168 74.3258 10.32L71.6378 9.216C71.6378 7.936 71.8938 6.752 72.4058 5.664C72.9178 4.544 73.6698 3.648 74.6618 2.976C75.6858 2.304 76.9018 1.968 78.3098 1.968C78.3738 1.968 78.4538 1.968 78.5498 1.968C78.6458 1.968 78.7418 1.968 78.8378 1.968ZM70.9658 27.168C73.5578 27.168 75.5578 27.728 76.9658 28.848C78.3738 29.968 79.0778 31.536 79.0778 33.552C79.0778 35.376 78.5498 36.912 77.4938 38.16C76.4378 39.44 74.9498 40.4 73.0298 41.04C71.1418 41.68 68.9498 42 66.4538 42C62.3258 42 59.3018 41.424 57.3818 40.272C55.4938 39.12 54.5498 37.616 54.5498 35.76C54.5498 34.448 55.0458 33.344 56.0378 32.448C57.0618 31.552 58.7418 31.056 61.0778 30.96L60.8378 31.728C59.1738 31.44 57.8938 30.896 56.9978 30.096C56.1338 29.264 55.7018 28.128 55.7018 26.688C55.7018 25.216 56.2618 24.016 57.3818 23.088C58.5338 22.128 60.0858 21.568 62.0378 21.408L64.9178 22.752H64.2458C62.8698 22.848 61.8938 23.136 61.3178 23.616C60.7738 24.064 60.5018 24.576 60.5018 25.152C60.5018 25.824 60.7578 26.336 61.2698 26.688C61.8138 27.008 62.5818 27.168 63.5738 27.168H70.9658ZM66.5018 37.488C68.1658 37.488 69.5258 37.344 70.5818 37.056C71.6698 36.768 72.4698 36.4 72.9818 35.952C73.5258 35.504 73.7978 35.008 73.7978 34.464C73.7978 33.856 73.5578 33.36 73.0778 32.976C72.5978 32.624 71.7338 32.448 70.4858 32.448H62.3738C61.6058 32.448 60.9658 32.64 60.4538 33.024C59.9738 33.408 59.7338 33.936 59.7338 34.608C59.7338 35.504 60.3258 36.208 61.5098 36.72C62.7258 37.232 64.3898 37.488 66.5018 37.488ZM66.5498 7.2C68.7898 7.2 70.7258 7.536 72.3578 8.208C74.0218 8.848 75.2858 9.776 76.1498 10.992C77.0458 12.208 77.4938 13.664 77.4938 15.36C77.4938 17.024 77.0458 18.464 76.1498 19.68C75.2858 20.896 74.0218 21.84 72.3578 22.512C70.7258 23.152 68.7898 23.472 66.5498 23.472C62.9978 23.472 60.2778 22.752 58.3898 21.312C56.5338 19.84 55.6058 17.856 55.6058 15.36C55.6058 13.664 56.0378 12.208 56.9018 10.992C57.7978 9.776 59.0618 8.848 60.6938 8.208C62.3258 7.536 64.2778 7.2 66.5498 7.2ZM66.5498 11.328C65.2698 11.328 64.2138 11.68 63.3818 12.384C62.5498 13.088 62.1338 14.064 62.1338 15.312C62.1338 16.56 62.5498 17.552 63.3818 18.288C64.2138 18.992 65.2698 19.344 66.5498 19.344C67.8298 19.344 68.8698 18.992 69.6698 18.288C70.5018 17.552 70.9178 16.56 70.9178 15.312C70.9178 14.064 70.5018 13.088 69.6698 12.384C68.8698 11.68 67.8298 11.328 66.5498 11.328Z" fill="white"></path><path d="M93.9976 7.2C96.4296 7.2 98.5576 7.696 100.382 8.688C102.238 9.68 103.678 11.104 104.702 12.96C105.758 14.816 106.286 17.056 106.286 19.68C106.286 22.272 105.758 24.512 104.702 26.4C103.678 28.256 102.238 29.68 100.382 30.672C98.5576 31.664 96.4296 32.16 93.9976 32.16C91.5976 32.16 89.4696 31.664 87.6136 30.672C85.7576 29.68 84.3016 28.256 83.2456 26.4C82.2216 24.512 81.7096 22.272 81.7096 19.68C81.7096 17.056 82.2216 14.816 83.2456 12.96C84.3016 11.104 85.7576 9.68 87.6136 8.688C89.4696 7.696 91.5976 7.2 93.9976 7.2ZM93.9976 12.096C92.7816 12.096 91.7416 12.384 90.8776 12.96C90.0456 13.504 89.4056 14.336 88.9576 15.456C88.5096 16.576 88.2856 17.984 88.2856 19.68C88.2856 21.376 88.5096 22.784 88.9576 23.904C89.4056 25.024 90.0456 25.872 90.8776 26.448C91.7416 26.992 92.7816 27.264 93.9976 27.264C95.1816 27.264 96.1896 26.992 97.0216 26.448C97.8856 25.872 98.5416 25.024 98.9896 23.904C99.4376 22.784 99.6616 21.376 99.6616 19.68C99.6616 17.984 99.4376 16.576 98.9896 15.456C98.5416 14.336 97.8856 13.504 97.0216 12.96C96.1896 12.384 95.1816 12.096 93.9976 12.096Z" fill="white"></path></g></svg>